<?xml version="1.0" standalone="no"?>
<!DOCTYPE svg PUBLIC "-//W3C//DTD SVG 20010904//EN"
 "http://www.w3.org/TR/2001/REC-SVG-20010904/DTD/svg10.dtd">
<svg version="1.0" xmlns="http://www.w3.org/2000/svg"
 width="64.000000pt" height="64.000000pt" viewBox="0 0 64.000000 64.000000"
 preserveAspectRatio="xMidYMid meet">

<g transform="translate(0.000000,64.000000) scale(0.100000,-0.100000)"
fill="#000000" stroke="none">
<path d="M285 615 c-10 -9 -34 -14 -53 -13 -33 2 -52 -12 -52 -40 0 -7 -16
-20 -35 -28 -33 -13 -36 -18 -33 -54 1 -25 -4 -46 -15 -58 -21 -23 -21 -31 0
-54 10 -12 16 -32 15 -51 -2 -18 2 -41 8 -53 9 -16 5 -34 -24 -98 -20 -43 -36
-80 -36 -82 0 -2 21 -4 48 -4 41 0 50 -4 74 -32 32 -39 35 -36 72 52 27 65 27
65 66 65 39 0 39 0 71 -72 17 -40 35 -73 40 -73 5 0 18 13 31 30 19 26 28 30
70 30 26 0 48 2 48 4 0 3 -16 40 -35 83 -29 63 -34 81 -25 98 6 11 10 34 8 52
-1 19 5 39 15 51 21 23 21 31 0 54 -11 12 -16 33 -15 58 3 36 0 41 -33 54 -19
8 -35 22 -35 30 0 25 -27 44 -54 39 -15 -3 -37 2 -51 11 -30 20 -44 20 -70 1z
m65 -10 c7 -8 29 -15 50 -15 32 0 39 -4 49 -28 7 -16 25 -33 43 -40 28 -10 30
-14 24 -46 -4 -20 -2 -37 4 -41 26 -16 30 -43 10 -68 -15 -18 -18 -33 -14 -56
6 -29 4 -33 -24 -43 -18 -7 -36 -24 -43 -40 -10 -24 -17 -28 -49 -28 -21 0
-43 -7 -50 -15 -16 -19 -44 -19 -60 0 -7 8 -29 15 -50 15 -32 0 -39 4 -49 28
-7 16 -25 33 -43 40 -28 10 -30 14 -24 43 4 23 1 38 -14 56 -20 25 -16 52 10
68 6 4 8 21 4 41 -6 32 -4 36 24 46 18 7 36 24 43 40 10 24 17 28 49 28 21 0
43 7 50 15 7 8 20 15 30 15 10 0 23 -7 30 -15z m-167 -390 c16 -34 19 -35 52
-29 26 5 35 3 35 -7 0 -20 -53 -139 -61 -139 -4 0 -16 11 -27 25 -16 20 -29
25 -62 25 -30 0 -41 4 -37 13 40 101 63 147 72 147 6 0 19 -16 28 -35z m345
-40 c18 -41 32 -77 32 -80 0 -3 -18 -5 -40 -5 -32 0 -46 -6 -65 -27 -13 -16
-25 -26 -27 -23 -9 10 -58 132 -58 142 0 6 13 8 35 4 33 -6 36 -5 52 29 9 19
22 35 28 35 6 0 25 -34 43 -75z"/>
<path d="M254 536 c-17 -8 -40 -26 -52 -41 -27 -34 -47 -104 -34 -117 6 -6 11
8 14 37 7 58 45 100 108 120 31 9 37 14 20 14 -14 0 -39 -6 -56 -13z"/>
<path d="M390 520 c8 -5 20 -10 25 -10 6 0 3 5 -5 10 -8 5 -19 10 -25 10 -5 0
-3 -5 5 -10z"/>
<path d="M458 421 c2 -27 0 -64 -6 -81 -6 -17 -7 -28 -2 -25 19 12 30 78 19
117 -5 21 -11 38 -13 38 -2 0 -1 -22 2 -49z"/>
<path d="M348 393 l-47 -47 -33 29 -33 30 33 -35 32 -35 52 53 c29 28 51 52
48 52 -3 0 -26 -21 -52 -47z"/>
<path d="M185 320 c-3 -5 -2 -10 4 -10 5 0 13 5 16 10 3 6 2 10 -4 10 -5 0
-13 -4 -16 -10z"/>
<path d="M215 280 c-3 -5 -2 -10 4 -10 5 0 13 5 16 10 3 6 2 10 -4 10 -5 0
-13 -4 -16 -10z"/>
<path d="M400 281 c0 -5 5 -13 10 -16 6 -3 10 -2 10 4 0 5 -4 13 -10 16 -5 3
-10 2 -10 -4z"/>
<path d="M265 259 c-4 -6 -5 -12 -2 -15 2 -3 7 2 10 11 7 17 1 20 -8 4z"/>
<path d="M361 254 c0 -11 3 -14 6 -6 3 7 2 16 -1 19 -3 4 -6 -2 -5 -13z"/>
<path d="M311 244 c0 -11 3 -14 6 -6 3 7 2 16 -1 19 -3 4 -6 -2 -5 -13z"/>
</g>
</svg>
